# xmcd
#
# Track frame offsets:
#	150
#	10241
#	26682
#	39915
#	49589
#	60694
#	75032
#	94518
#	111200
#	125575
#	136997
#	147540
#	162795
#	178895
#	193371
#	206233
#	218613
#
# Disc length: 3046
#
# Revision: 0
# Processed by: cddbd v1.5.1PL2 Copyright (c) Steve Scherf et al.
# Submitted via: Broken Cross Disk Manager 3.81.2155
#
DISCID=ec0be411
DTITLE=Various Artist - Lisboa, Cidade de Fado Vol. III
DYEAR=1995
DGENRE=
TTITLE0=Armenio de Melo - Guitarras Cantam Comigo
TTITLE1=Jose Ant. Sabrosa - Variacoes Sobre O Fado Sabrosa
TTITLE2=Julio de Sousa - Loucura
TTITLE3=Raul Ferrao - Fado Carriche
TTITLE4=Jaime Santos - Fado Alfacinha
TTITLE5=Jose Ant. Sabrosa - Saudade Das Saudades
TTITLE6=Jose Serodio Guimares - Fadi Tia Dolores
TTITLE7=Armando Machado - Fado Licas
TTITLE8=Miguel Ramos - Fado Margaridas
TTITLE9=D.R - Fado Ginguinhas
TTITLE10=Armando Machado - Fado Suplica
TTITLE11=D.R - Fado Sonho
TTITLE12=Julio Proenca - Fado Proenca
TTITLE13=Jose Marques Amaral - Fado Da Sina
TTITLE14=Joaquim Campos - Fado Amorea
TTITLE15=Jose Cavalheiro - Fado Menor Do Porto
TTITLE16=Maria Teresa Noronha - Lamento De Teresa Noronha
EXTD=
EXTT0=
EXTT1=
EXTT2=
EXTT3=
EXTT4=
EXTT5=
EXTT6=
EXTT7=
EXTT8=
EXTT9=
EXTT10=
EXTT11=
EXTT12=
EXTT13=
EXTT14=
EXTT15=
EXTT16=
PLAYORDER=
